
<svg width="715px" height="609px" viewBox="303 108 715 609" version="1.1" xmlns="http://www.w3.org/2000/svg" xmlns:xlink="http://www.w3.org/1999/xlink">
    <!-- Generator: Sketch 40.3 (33839) - http://www.bohemiancoding.com/sketch -->
    <desc>Created with Sketch.</desc>
    <defs></defs>
    <g id="Group-4" stroke="none" stroke-width="1" fill="none" fill-rule="evenodd" transform="translate(303.000000, 108.000000)">
        <path d="M369.477397,608.31022 C369.477397,608.31022 284.99678,613.175991 251.80637,549.158963 C218.619399,485.141935 191.461107,490.002164 191.461107,477.036935 C191.461107,464.071707 152.235139,492.435049 138.155609,489.193049 C124.079519,485.951049 118.0474,482.709049 138.155609,469.746592 C158.274136,456.784134 179.389991,459.208707 162.30128,437.329364 C145.198813,415.452792 54.6826386,419.503907 39.5989022,427.608906 C24.5117267,435.713906 6.41536995,446.246249 6.41536995,434.902021 C6.41536995,423.557792 -18.7310688,416.261907 30.5472847,412.213563 C79.8256383,408.159678 119.051607,403.296678 125.087165,398.433678 C131.122723,393.57345 153.249663,386.280335 128.099785,373.315107 C102.963664,360.352649 13.4516957,335.225765 10.4356362,324.696193 C7.41269862,314.161079 -4.65497831,292.281736 19.4838146,296.330079 C43.6191685,300.386736 133.127697,339.27965 140.170901,336.852307 C147.210666,334.41665 154.25387,329.284869 147.544255,314.161079 C140.841519,299.034517 139.500284,269.86206 124.750136,263.918393 C109.999989,257.980269 83.1787261,253.117269 83.1787261,244.474707 C83.1787261,235.823832 120.059253,242.853707 118.714578,238.531041 C117.373343,234.205603 101.956018,228.267479 81.1668734,212.06025 C60.3811683,195.853022 67.0873438,194.769584 51.6665791,186.667356 C36.2423754,178.562356 27.5346643,165.059565 36.916432,165.599898 C46.3016387,166.140232 82.5081085,183.96846 105.976284,192.070689 C129.444459,200.170147 134.8094,216.380146 136.150635,209.355813 C137.49187,202.334251 135.480017,185.043585 126.761989,167.758461 C118.0474,150.476108 109.999989,124.540109 122.067666,122.378775 C134.138782,120.220213 150.226725,130.486546 158.274136,148.852337 C166.314669,167.223669 164.980312,175.320356 171.01243,173.702127 C177.051428,172.083898 189.786283,159.115899 198.504311,159.659003 C207.225778,160.193794 216.607546,169.382232 213.251019,174.782794 C209.897932,180.183356 164.980312,206.113813 164.306255,220.700041 C163.639076,235.289041 179.730459,240.14927 189.786283,235.289041 C199.845546,230.426041 216.607546,219.624917 222.639665,229.885708 C228.675223,240.14927 233.372985,242.848165 219.960634,247.176374 C206.548283,251.496269 192.468753,258.51506 189.115665,267.160393 C185.766017,275.805726 181.742311,280.665955 187.77443,297.410746 C193.813427,314.161079 206.548283,334.688202 211.913223,336.309202 C217.278164,337.930202 234.040163,303.897517 239.401665,314.161079 C244.766605,324.424641 244.766605,337.932973 254.825869,335.231307 C264.881693,332.526869 260.18737,316.865516 277.619987,314.701412 C295.052605,312.540079 299.072871,309.298079 295.726661,298.494183 C292.373574,287.690288 256.837721,270.939956 250.128107,261.219498 C243.428809,251.496269 234.707342,244.474707 244.095988,242.853707 C253.481194,241.229936 280.976514,265.539393 289.684225,253.654832 C298.402253,241.77027 293.040752,234.211145 301.75878,218.541479 C310.473369,202.874584 311.814605,204.495584 301.75878,195.312689 C291.702956,186.127022 268.231342,183.425356 268.231342,171.003232 C268.231342,158.575565 274.934078,160.73967 264.211075,146.147899 C253.481194,131.564442 230.013019,113.738984 238.056991,102.391985 C246.104401,91.0477562 252.139959,96.9914226 266.222928,110.496984 C280.302458,124.005317 280.302458,132.647879 297.067896,137.508108 L313.826457,142.368337 C313.826457,142.368337 328.573165,128.325213 324.552899,105.633985 C320.532633,82.9455275 317.846723,75.9211944 317.846723,64.5769659 C317.846723,53.2327373 303.767194,18.1166139 311.147426,8.39338529 C318.524219,-1.33261431 333.938106,-7.80830122 350.703545,28.3829469 C367.465544,64.5769659 368.810219,74.3001945 376.180134,74.8377569 C383.550049,75.3836321 396.295221,51.6145083 409.707572,54.3134039 C423.113045,57.0178414 435.1876,67.8189657 422.442428,77.5421944 C409.707572,87.268194 396.295221,96.9914226 392.942133,106.177089 C389.592485,115.359984 386.906575,123.464984 391.604337,124.005317 C396.295221,124.545651 416.410309,119.142317 419.096218,127.784879 C421.775249,136.427442 417.080926,146.153441 407.021663,148.312003 C396.9624,150.476108 380.207278,155.339107 380.207278,161.277232 C380.207278,167.223669 379.533221,178.022023 394.953986,200.716022 C410.37819,223.404479 419.096218,232.584603 424.457719,224.485146 C429.82266,216.380146 460.664189,186.127022 458.655776,173.164565 C456.640484,160.193794 449.930869,147.768899 449.930869,133.723004 C449.930869,119.682651 444.572807,108.873214 454.63207,108.873214 C464.684456,108.873214 472.731866,105.633985 474.743719,128.862775 C476.755572,152.094337 483.458308,161.817565 491.505719,159.659003 C499.553129,157.492128 537.097395,113.738984 541.791718,107.254985 C546.486041,100.770985 571.959191,105.636756 566.601129,118.05888 C561.232749,130.483775 541.127979,147.228566 535.085543,160.193794 C529.056863,173.164565 516.308251,193.691689 523.688483,200.716022 C531.061837,207.734813 546.486041,207.19448 561.903367,200.170147 C577.33101,193.148584 595.427366,186.667356 598.113276,191.530355 C600.792307,196.390584 608.839717,211.514375 598.113276,216.380146 C587.379956,221.240375 586.04216,218.541479 565.927072,223.944812 C545.811984,229.342603 541.788279,230.969145 526.370953,233.670812 C510.953628,236.369707 500.890925,232.047041 497.541277,239.608936 C494.18475,247.176374 488.152631,261.759831 489.493866,268.24106 C490.835101,274.72506 529.056863,285.526184 526.370953,290.926746 C523.688483,296.330079 530.39122,302.81685 514.299837,299.577621 C498.208455,296.330079 497.541277,290.926746 484.128926,296.875954 C470.723453,302.81685 490.835101,308.217412 490.164484,318.483745 C489.493866,328.747307 480.772399,346.575535 486.140778,349.817535 C491.498841,353.059535 535.752721,351.435764 537.768013,326.585974 C539.779865,301.738954 523.017866,282.286955 531.732455,274.72506 C540.450483,267.160393 546.486041,270.945497 551.847542,283.367622 C557.212483,295.792517 562.577423,312.002516 567.938925,311.459412 C573.303865,310.92185 594.756749,300.115183 584.030307,287.149955 C573.303865,274.184726 573.300426,267.160393 580.010041,260.681935 C586.712777,254.197936 594.877116,253.654832 603.53668,257.980269 C612.192805,262.300164 624.927661,261.219498 628.954805,252.574165 C632.97851,243.928832 653.090159,239.608936 658.458538,230.969145 C663.823479,222.321041 677.228952,217.460812 675.891156,230.969145 C674.549921,244.474707 667.173128,249.875269 659.129156,263.380831 C651.081745,276.886393 646.387422,282.289726 650.407689,283.367622 C654.427955,284.448288 726.844334,299.577621 712.761365,308.220183 C698.685274,316.865516 712.761365,317.400307 683.935127,316.319641 C655.105451,315.238974 644.37557,306.056079 633.649128,315.238974 C622.922686,324.424641 613.527162,326.04564 620.236777,330.911411 C626.942952,335.77164 683.261071,352.521973 677.903008,361.161764 C672.541507,369.804326 665.161275,370.34743 651.081745,366.027535 C636.998777,361.702097 620.236777,359.540764 607.498482,356.301535 C594.760188,353.059535 581.378788,346.575535 574.321828,355.215326 C567.271746,363.860659 560.565571,381.691659 553.862834,384.930888 C547.14978,388.172887 535.752721,397.353012 553.862834,405.998345 C571.959191,414.643678 588.721191,407.619345 591.410539,404.917678 C594.086131,402.216012 605.48663,403.296678 610.848131,408.69724 C616.213071,414.103344 605.48663,416.805011 603.474777,423.28624 C601.459485,429.767469 589.395247,430.848135 607.498482,438.953135 C625.605156,447.058135 628.954805,451.918363 624.927661,456.238259 C620.910833,460.560925 620.236777,463.802925 604.816012,460.560925 C589.395247,457.321697 553.188778,448.673593 538.43863,446.51503 C523.688483,444.353697 516.985747,438.412802 521.673191,447.058135 C526.370953,455.700697 543.129514,469.206258 538.43863,472.988592 C533.740868,476.770925 529.724041,475.687487 529.724041,482.71182 C529.724041,489.733382 546.486041,498.916278 528.379367,503.238944 C510.279571,507.564382 505.588687,497.841153 485.470161,518.365506 C465.355073,538.895401 433.839487,584.272315 418.422161,584.272315 C403.001397,584.272315 386.235958,605.880106 369.477397,608.31022" id="Fill-180" fill="#E77834"></path>
        <path d="M397.971139,527.205058 C397.971139,527.205058 422.797744,484.97316 455.809323,485.685292 C488.820902,486.400195 510.208444,495.652363 502.130082,475.147407 C494.04828,454.63968 439.043884,453.248668 465.706951,431.929055 C492.366578,410.612213 557.148234,367.222063 551.824562,361.034554 C546.50089,354.841503 471.814729,402.183013 462.938504,394.948089 C454.062279,387.707623 448.002647,377.94283 455.100876,361.034554 C462.195666,344.117965 456.046619,338.398744 442.703049,343.400291 C429.366357,348.410151 421.669731,342.391669 426.498178,330.509878 C431.323185,318.625316 474.682909,251.928789 442.703049,260.845674 C410.730067,269.759788 412.140084,309.420253 385.250039,284.226866 C358.373751,259.033479 337.072186,219.514332 332.635793,250.354895 C328.202839,281.201 345.786776,321.579138 316.582241,325.702297 C287.381145,329.817143 280.19694,318.024022 274.470897,334.644121 C268.744855,351.26699 248.423424,360.782398 231.960622,361.034554 C215.497821,361.275625 184.425875,340.765127 183.548913,361.034554 C182.671952,381.298438 145.454397,371.195591 156.964945,390.190385 C168.472055,409.185179 221.440525,415.810497 215.838289,430.272033 C210.229175,444.73634 165.14648,427.695059 177.014691,442.386583 C188.879463,457.08642 208.657522,460.317336 227.606767,475.147407 C246.559451,489.974707 271.251933,535.02188 284.64365,547.892896 C298.031927,560.758371 316.795463,552.492657 333.144775,539.111787 C349.497526,525.728147 361.902231,522.865766 370.785335,525.013244 C379.668438,527.155181 397.971139,527.205058 397.971139,527.205058" id="Fill-181" fill="#CD682D"></path>
        <path d="M528.986567,503.711623 C545.053875,499.873871 533.670572,492.214992 530.902125,485.628468 C532.900222,492.935437 534.217384,499.333537 523.831409,503.417903 C513.445435,507.502269 484.223705,496.410196 456.934729,500.112171 C429.649192,503.808605 440.750492,521.323718 440.998104,542.335756 C441.238839,563.353336 400.424023,580.66617 389.07511,577.357667 C377.722759,574.049165 383.039552,542.139019 361.782695,542.529722 C340.532716,542.917653 341.492215,578.524233 313.57733,574.83057 C285.652127,571.134136 261.798776,537.273249 256.007392,522.487512 C250.212568,507.701776 245.136509,510.420068 232.34319,506.335703 C219.539553,502.248566 205.532244,483.181728 199.25939,475.328884 C192.97622,467.476039 182.270412,475.328884 182.270412,475.328884 L182.270412,475.331655 C188.113383,473.450186 192.068307,473.394767 192.068307,477.509613 C192.068307,490.474842 219.226598,485.614613 252.41357,549.631641 C285.60398,613.648669 370.084597,608.782899 370.084597,608.782899 C386.843157,606.352784 403.608596,584.744994 419.029361,584.744994 C434.446687,584.744994 465.962273,539.368079 486.07736,518.838184 C506.195887,498.313831 510.886771,508.03706 528.986567,503.711623" id="Fill-182" fill="#CD682D"></path>
    </g>
</svg>