
<svg width="1081px" height="948px" viewBox="-25316 -7074 1081 948" version="1.1" xmlns="http://www.w3.org/2000/svg" xmlns:xlink="http://www.w3.org/1999/xlink">
    <!-- Generator: Sketch 40.3 (33839) - http://www.bohemiancoding.com/sketch -->
    <desc>Created with Sketch.</desc>
    <defs></defs>
    <g id="Group-4" stroke="none" stroke-width="1" fill="none" fill-rule="evenodd" transform="translate(-25315.000000, -7074.000000)">
        <path d="M380.54011,855.345899 C330.386598,755.522524 289.343875,763.101202 289.343875,742.884193 C289.343875,722.667183 230.063983,766.894862 208.786421,761.83953 C187.514056,756.784197 178.39807,751.728864 208.786421,731.516176 C239.190363,711.303487 271.10151,715.084185 245.276349,680.967171 C219.430399,646.854478 82.6386453,653.171483 59.8434845,665.809815 C37.0431264,678.448146 9.69517008,694.871496 9.69517008,677.182153 C9.69517008,659.492809 -28.3071592,648.116151 46.1643091,641.803466 C120.635777,635.48214 179.915669,627.899141 189.036852,620.316142 C198.158034,612.737464 231.597174,601.365127 193.589647,581.148117 C155.60291,560.935428 20.328754,521.754441 15.7707613,505.335412 C11.2023741,488.907741 -7.03479406,454.790728 29.4447394,461.103412 C65.9190757,467.429059 201.188034,528.075767 211.832012,524.290748 C222.470794,520.492768 233.114772,512.490652 222.974927,488.907741 C212.845477,465.32051 210.818548,419.831159 188.527521,410.563049 C166.236493,401.303581 125.703101,393.720582 125.703101,380.244016 C125.703101,366.754487 181.438465,377.71635 179.406338,370.975906 C177.379408,364.231142 154.080114,354.971674 122.662707,329.699332 C91.250497,304.42699 101.385144,302.737558 78.0806526,290.103547 C54.7709635,277.465216 41.6115136,256.409972 55.7896255,257.252527 C69.9729347,258.095083 124.689636,285.895091 160.155705,298.529102 C195.621774,311.158792 203.729492,336.435454 205.756421,325.482234 C207.783351,314.533334 204.742956,287.57156 191.567915,260.618428 C178.39807,233.669617 166.236493,193.226956 184.473662,189.856735 C202.716027,186.490834 227.028786,202.499387 239.190363,231.13763 C251.341546,259.784514 249.325011,272.409883 258.440996,269.886538 C267.567376,267.363192 286.812812,247.141862 299.987853,247.988738 C313.168092,248.822652 327.346204,263.150415 322.273683,271.571649 C317.206359,279.992882 249.325011,320.426901 248.306349,343.171577 C247.298081,365.920574 271.616038,373.499252 286.812812,365.920574 C302.014783,358.337575 327.346204,341.495108 336.46219,357.495019 C345.583372,373.499252 352.682823,377.707708 332.413528,384.456793 C312.144233,391.192916 290.866671,402.137495 285.799347,415.618381 C280.73722,429.099268 274.656432,436.677946 283.772417,462.788523 C292.898797,488.907741 312.144233,520.916206 320.251951,523.443872 C328.359669,525.971539 353.69109,472.903509 361.793611,488.907741 C369.901329,504.911974 369.901329,525.975859 385.1033,521.763082 C400.300074,517.545984 393.205821,493.124839 419.550707,489.750297 C445.895593,486.380075 451.971184,481.324742 446.914255,464.477955 C441.846931,447.631167 388.143694,421.511949 378.00385,406.354593 C367.879597,391.192916 354.699358,380.244016 368.887864,377.71635 C383.071173,375.184362 424.623228,413.090715 437.782678,394.558817 C450.957719,376.026918 442.855199,364.239784 456.03024,339.805676 C469.200085,315.375889 471.227014,317.903556 456.03024,303.584434 C440.833466,289.260992 405.3622,285.048215 405.3622,265.678082 C405.3622,246.299307 415.491651,249.673849 399.286609,226.920532 C383.071173,204.180177 347.605104,176.384489 359.761484,158.690825 C371.923061,141.001482 381.044244,150.269592 402.327003,171.329157 C423.604566,192.393043 423.604566,205.869609 448.941184,213.448287 L474.267408,221.026965 C474.267408,221.026965 496.553238,199.129165 490.477647,163.746158 C484.402056,128.367472 480.343,117.414251 480.343,99.7249079 C480.343,82.0355647 459.065437,27.2781035 470.218747,12.1164265 C481.366859,-3.04957116 504.660956,-13.1472739 529.997575,43.2866566 C555.328996,99.7249079 557.361123,114.886585 568.49884,115.724819 C579.636558,116.576016 598.897586,79.5122192 619.16688,83.7206755 C639.425781,87.9377735 657.673343,104.78024 638.412316,119.941917 C619.16688,135.107915 598.897586,150.269592 593.830262,164.593034 C588.768135,178.912156 584.709079,191.550487 591.80853,192.393043 C598.897586,193.235598 629.296331,184.810044 633.355387,198.28661 C637.404048,211.763176 630.309795,226.929174 615.107824,230.295074 C599.905853,233.669617 574.584826,241.252616 574.584826,250.512084 C574.584826,259.784514 573.566164,276.622661 596.870656,312.009989 C620.180345,347.388675 633.355387,361.703476 641.457907,349.073786 C649.565625,336.435454 696.174609,289.260992 693.139412,269.048303 C690.093821,248.822652 679.953976,229.448198 679.953976,207.546078 C679.953976,185.652599 671.856653,168.79717 687.058624,168.79717 C702.2502,168.79717 714.411777,163.746158 717.452171,199.9674 C720.492566,236.192962 730.622016,251.354639 742.783593,247.988738 C754.94517,244.609875 811.683604,176.384489 818.777857,166.273824 C825.87211,156.163159 864.368178,163.750479 856.270855,183.120612 C848.15794,202.495066 817.774787,228.605643 808.643209,248.822652 C799.532421,269.048303 780.266196,301.056768 791.419506,312.009989 C802.562421,322.954568 825.87211,322.112012 849.171405,311.158792 C872.486291,300.209892 899.834247,290.103547 903.893303,297.686546 C907.941965,305.265224 920.103542,328.848135 903.893303,336.435454 C887.67267,344.014132 885.650938,339.805676 855.252193,348.23123 C824.853448,356.648143 818.772659,359.184451 795.473365,363.397228 C772.17407,367.605684 756.966902,360.865241 751.904775,372.656696 C746.832254,384.456793 737.716269,407.197148 739.743199,417.303492 C741.770128,427.414157 799.532421,444.256624 795.473365,452.677858 C791.419506,461.103412 801.548956,471.218398 777.231,466.167386 C752.913043,461.103412 751.904775,452.677858 731.635481,461.954609 C711.37658,471.218398 741.770128,479.639632 740.756663,495.648185 C739.743199,511.652417 726.56296,539.452425 734.675875,544.507758 C742.773198,549.563091 809.651477,547.031103 812.697068,508.282195 C815.737463,469.537608 790.406041,439.205613 803.575886,427.414157 C816.750927,415.618381 825.87211,421.52059 833.974631,440.890723 C842.082349,460.265178 850.190067,485.54184 858.292587,484.694964 C866.400305,483.85673 898.820782,467.005621 882.610544,446.788611 C866.400305,426.571602 866.395108,415.618381 876.534953,405.516358 C886.664403,395.405693 899.002686,394.558817 912.089375,401.303581 C925.170866,408.039703 944.416301,406.354593 950.502287,392.873706 C956.583076,379.392819 986.976623,372.656696 995.089539,359.184451 C1003.19726,345.699243 1023.45616,338.120565 1021.43442,359.184451 C1019.4075,380.244016 1008.25938,388.665249 996.103003,409.724814 C983.941426,430.784379 976.847173,439.209933 982.922764,440.890723 C988.998356,442.575834 1098.43696,466.167386 1077.1542,479.643952 C1055.88183,493.124839 1077.1542,493.958753 1033.5908,492.273642 C990.022215,490.588531 973.806779,476.26941 957.59654,490.588531 C941.386302,504.911974 927.187401,507.43964 937.327245,515.02696 C947.461893,522.605638 1032.57214,548.724856 1024.47482,562.197101 C1016.3723,575.673667 1005.21899,576.520543 983.941426,569.784421 C962.658667,563.039657 937.327245,559.669435 918.076613,554.618423 C898.82598,549.563091 878.60346,539.452425 867.938693,552.924671 C857.28432,566.405557 847.149672,594.209887 837.020222,599.260898 C826.87518,604.316231 809.651477,618.631032 837.020222,632.111918 C864.368178,645.592805 889.6996,634.639585 893.763853,630.426808 C897.807318,626.21403 915.036218,627.899141 923.138739,636.320375 C931.246457,644.75025 915.036218,648.963027 911.995824,659.069371 C908.950233,669.175716 890.718262,670.860827 918.076613,683.499158 C945.440161,696.137489 950.502287,703.716167 944.416301,710.45229 C938.345907,717.192734 937.327245,722.248066 914.022754,717.192734 C890.718262,712.141722 836.00156,698.656514 813.710533,695.290613 C791.419506,691.920391 781.290056,682.656603 788.373914,696.137489 C795.473365,709.614055 820.799589,730.67362 813.710533,736.571508 C806.611083,742.469396 800.540689,740.779965 800.540689,751.733185 C800.540689,762.682085 825.87211,777.001207 798.508562,783.74165 C771.155408,790.486414 764.066352,775.324737 733.66241,807.328881 C703.263665,839.341667 655.636019,910.099039 632.336725,910.099039 C609.032233,910.099039 583.695614,943.792615 558.36939,947.581954 C558.36939,947.581954 430.698819,955.169274 380.54011,855.345899 Z" id="Fill-180" fill="#56E2C8"></path>
    </g>
</svg>